<?xml version="1.0" standalone="no"?>
<!DOCTYPE svg PUBLIC "-//W3C//DTD SVG 20010904//EN"
 "http://www.w3.org/TR/2001/REC-SVG-20010904/DTD/svg10.dtd">
<svg version="1.0" xmlns="http://www.w3.org/2000/svg"
 width="102.000000pt" height="98.000000pt" viewBox="0 0 102.000000 98.000000"
 preserveAspectRatio="xMidYMid meet">

<g transform="translate(0.000000,98.000000) scale(0.100000,-0.100000)"
fill="#000000" stroke="none">
<path d="M833 893 c-7 -2 -29 -32 -49 -66 -21 -34 -39 -64 -40 -65 -1 -2 -19
2 -38 9 -28 10 -43 11 -67 2 -23 -9 -35 -8 -57 3 -39 20 -66 17 -99 -10 -25
-21 -31 -22 -48 -10 -25 18 -65 18 -93 -2 -31 -21 -98 -123 -138 -208 -63
-138 -96 -328 -59 -342 26 -10 45 16 45 60 0 52 32 178 64 251 41 92 113 195
136 195 31 0 34 -23 10 -70 -19 -38 -20 -44 -7 -58 24 -23 39 -10 82 68 43 78
58 91 82 67 14 -13 11 -21 -21 -77 -41 -70 -43 -95 -7 -95 20 0 33 16 73 85
38 66 53 85 71 85 34 0 31 -26 -13 -102 -43 -76 -49 -100 -24 -110 22 -8 32 5
134 180 69 117 97 157 111 157 48 0 42 -13 -160 -361 -80 -138 -70 -175 28
-109 45 31 93 38 121 20 12 -9 4 -21 -45 -66 -83 -78 -135 -112 -228 -150
-104 -43 -166 -100 -151 -138 10 -26 37 -18 77 23 25 26 57 46 90 57 29 9 79
33 112 52 66 40 225 187 225 208 0 8 -13 28 -28 45 -23 26 -38 32 -84 38 l-56
6 94 160 c51 88 93 170 94 183 0 27 -17 62 -39 79 -16 12 -75 16 -98 6z"/>
</g>
</svg>
