<?xml version="1.0" encoding="UTF-8" standalone="no"?>
<!-- Created with Inkscape (http://www.inkscape.org/) -->

<svg
   version="1.1"
   id="svg198"
   width="437.99994"
   height="405.35458"
   viewBox="0 0 437.99994 405.35459"
   sodipodi:docname="logo11.png"
   xmlns:inkscape="http://www.inkscape.org/namespaces/inkscape"
   xmlns:sodipodi="http://sodipodi.sourceforge.net/DTD/sodipodi-0.dtd"
   xmlns="http://www.w3.org/2000/svg"
   xmlns:svg="http://www.w3.org/2000/svg">
  <defs
     id="defs202" />
  <sodipodi:namedview
     id="namedview200"
     pagecolor="#ffffff"
     bordercolor="#000000"
     borderopacity="0.25"
     inkscape:showpageshadow="2"
     inkscape:pageopacity="0.0"
     inkscape:pagecheckerboard="0"
     inkscape:deskcolor="#d1d1d1"
     showgrid="false" />
  <g
     inkscape:groupmode="layer"
     inkscape:label="Image"
     id="g204"
     transform="translate(-120.57153,-20.700252)">
    <path
       style="fill:#000000;stroke-width:1.33333"
       d="m 327.7367,425.15367 c -0.37916,-0.98809 -0.47986,-22.10188 -0.22378,-46.91954 0.44382,-43.01116 0.60472,-45.46624 3.43781,-52.45636 5.76584,-14.22612 15.57537,-24.8392 28.73267,-31.08628 6.05813,-2.8764 40.58532,-12.74969 48.22146,-13.78928 l 5.33334,-0.72607 -0.22292,9.13415 c -0.12267,5.02377 -0.27262,10.13443 -0.33334,11.357 -0.0763,1.53461 -2.07132,2.6576 -6.44374,3.62701 -3.48334,0.7723 -14.62628,3.74594 -24.76211,6.60811 -20.50476,5.79015 -25.87952,9.30444 -28.71757,18.77704 -1.74055,5.80943 -2.0507,20.94648 -0.44947,21.93611 1.16489,0.71993 9.05957,-1.25403 39.35112,-9.83926 10.86541,-3.07946 20.1286,-5.22574 20.58484,-4.76949 0.45625,0.45625 0.79963,5.46636 0.76305,11.13359 l -0.0665,10.30403 -7.18501,2.3638 c -3.95176,1.30008 -17.38502,5.14172 -29.85168,8.53698 -12.46667,3.39525 -22.96667,6.42953 -23.33334,6.74284 -0.36666,0.31329 -0.96666,10.53132 -1.33333,22.7067 l -0.66667,22.13708 -11.07272,3.00919 c -8.9502,2.43235 -11.20486,2.6648 -11.7621,1.21265 z m 96.2313,-44.9047 c -0.49032,-9.7925 -0.70511,-37.30211 -0.47731,-61.13248 l 0.41417,-43.32796 5.33334,-1.75309 c 2.93333,-0.9642 11.03333,-3.24263 18,-5.06318 32.5813,-8.5142 49.70481,-13.13246 61.84005,-16.67846 20.65317,-6.035 31.64721,-4.82286 41.94304,4.6244 7.27899,6.67906 7.50493,8.4238 7.52848,58.1369 l 0.0217,45.94401 -9.33333,2.9888 c -15.54944,4.97938 -14,9.48347 -14,-40.69699 0,-42.31278 -0.0951,-43.94104 -2.76344,-47.33334 -3.13848,-3.98993 -7.94445,-4.51269 -18.3128,-1.9919 -11.58352,2.81622 -10.84632,-0.74426 -11.24087,54.29084 l -0.34956,48.7615 -10.61789,2.94936 c -5.83985,1.62215 -11.08985,2.65768 -11.66667,2.30119 -0.5768,-0.35651 -1.04874,-22.51278 -1.04874,-49.23616 0,-37.99391 -0.3634,-48.58289 -1.66667,-48.56469 -4.01036,0.056 -28.17397,7.96916 -29.18023,9.556 -0.61174,0.96473 -1.12146,23.42192 -1.13269,49.90486 l -0.0204,48.15081 -7,2.17476 c -3.85,1.19611 -8.88522,2.54028 -11.18936,2.98706 l -4.18936,0.8123 z M 152.57153,325.02458 c -4.76667,-1.03097 -10.46667,-2.59845 -12.66667,-3.48326 -6.62865,-2.66598 -19.33333,-10.98102 -19.33333,-12.65339 0,-2.84364 8.63183,-16.39041 10.46084,-16.4172 0.98679,-0.0145 3.50666,1.19311 5.59969,2.68348 2.09304,1.49037 7.28566,4.31435 11.53916,6.27549 14.10424,6.50302 33.60462,3.83451 45.73364,-6.25837 37.44742,-31.16097 39.9499,-32.63837 55.33334,-32.66737 9.2853,-0.0175 11.84424,0.53852 19.75969,4.29352 12.52239,5.94048 21.53776,6.01968 28.11251,0.24698 6.79328,-5.96458 8.5414,-13.25361 7.54464,-31.45841 -0.0552,-1.00757 -3.49396,-0.44204 -10.13431,1.66667 -15.42335,4.89782 -15.28625,4.95598 -15.26212,-6.47495 0.0107,-5.31667 0.46123,-10.32165 1,-11.12219 0.53877,-0.80053 6.07959,-2.81756 12.31292,-4.48229 6.23333,-1.66473 11.63333,-3.49768 12,-4.0732 0.36667,-0.57552 0.47448,-5.45945 0.23957,-10.85319 l -0.42709,-9.80677 -5.57291,0.39293 c -7.24121,0.51055 -13.96917,-3.03854 -17.12649,-9.03449 -2.08076,-3.95148 -2.44336,-7.83752 -2.426,-26 0.0107,-11.74477 0.46123,-21.98305 1,-22.75173 0.99457,-1.41898 15.92893,-5.93574 19.62612,-5.93574 1.70433,0 2.02013,2.799 2.02013,17.90476 0,14.85694 0.37428,18.27906 2.19878,20.10354 1.40961,1.40961 3.20414,1.8809 5,1.31313 1.54066,-0.48709 5.50122,-1.58368 8.80122,-2.43687 3.3,-0.85317 6.75,-2.03664 7.66667,-2.62992 1.26389,-0.81801 1.6716,-9.67896 1.68708,-36.66666 0.0107,-19.57339 0.46123,-36.263546 1,-37.089246 0.53877,-0.82569 9.97959,-4.02329 20.97959,-7.10576 11,-3.08247 24.8,-7.0442 30.66666,-8.80385 15.15128,-4.54446 59.25983,-16.58911 60.75078,-16.58911 0.74646,0 1.24922,14.75687 1.24922,36.66666 0,41.048606 -0.84504,38.206306 10.28674,34.599506 15.29306,-4.95508 16.37993,-6.98015 16.37993,-30.519436 v -16.67224 l 7,-1.98104 c 3.85,-1.08956 8.65,-2.37137 10.66667,-2.84845 l 3.66666,-0.86743 v 26.29634 c 0,24.528456 -0.19489,26.643106 -2.89902,31.454466 -2.97116,5.28645 -11.3804,11.87161 -15.16004,11.87161 -1.16394,0 -3.2768,0.62111 -4.69526,1.38024 -2.18813,1.17106 -2.57901,2.85511 -2.57901,11.11112 0,5.35198 0.32828,10.05915 0.72952,10.46038 0.40123,0.40124 4.15123,-0.3266 8.33333,-1.6174 4.1821,-1.29082 9.57894,-2.77228 11.99298,-3.29216 l 4.38917,-0.94526 -0.38917,10.97136 -0.38916,10.97136 -9.33334,2.60743 c -17.14233,4.789 -15.33033,1.0922 -15.35374,31.32435 -0.0107,14.49905 -0.50384,27.12356 -1.09468,28.05445 -1.23879,1.95175 -18.69867,7.24661 -20.40939,6.18933 -0.6282,-0.38825 -1.14219,-12.6705 -1.14219,-27.29389 0,-20.38919 -0.38857,-26.58461 -1.66666,-26.57355 -0.91667,0.008 -4.61203,0.90795 -8.21191,2 -3.59988,1.09207 -7.94988,1.98558 -9.66667,1.98558 -2.97044,0 -3.12142,-0.44356 -3.12142,-9.17008 0,-6.16571 0.60222,-9.66987 1.83814,-10.6956 1.01099,-0.83904 5.96099,-2.86251 11,-4.49659 l 9.16186,-2.97107 0.66666,-10.44857 c 0.36667,-5.74672 0.47184,-10.64155 0.23371,-10.8774 -0.23812,-0.23585 -4.43621,0.716 -9.32908,2.11524 -14.97857,4.28348 -13.57129,7.83115 -13.57129,-34.21245 0,-34.373306 -0.1513,-36.712936 -2.33334,-36.084516 -1.28333,0.3696 -15.53333,4.35468 -31.66666,8.85574 -16.13334,4.50106 -30.67382,8.721886 -32.31218,9.379626 -2.97001,1.19234 -2.97989,1.30535 -3.33333,38.12195 l -0.35449,36.92606 -10.66667,3.55338 -10.66667,3.55337 -0.39884,9.09316 c -0.54601,12.44873 -0.30752,12.85221 6.25923,10.58979 2.95533,-1.0182 7.82245,-2.2429 10.8158,-2.72155 l 5.44247,-0.87029 -0.39267,10.51324 -0.39265,10.51322 -10.66667,3.47887 -10.66667,3.47887 -0.72261,15.85446 c -0.89483,19.63304 -2.63077,25.18203 -10.71579,34.2532 -13.22604,14.8393 -32.59417,18.81394 -51.00356,10.46671 -18.20414,-8.25415 -20.73305,-7.51705 -45.52177,13.26801 -18.34859,15.38511 -29.89608,21.57752 -44.29167,23.7517 -11.55838,1.74566 -12.12868,1.72989 -23.07793,-0.63834 z m 205.65641,-132.8561 0.34359,-81.60929 9.78343,-3.0639 c 5.38088,-1.68515 10.34576,-2.71636 11.03306,-2.29158 0.75384,0.46589 1.2092,28.63898 1.1477,71.00653 -0.0703,48.37726 0.3344,70.1927 1.30025,70.10086 0.77123,-0.0733 2.60223,-0.22333 4.06889,-0.33333 2.63091,-0.19732 2.66667,-1.15556 2.66667,-71.45464 0,-70.54368 0.11827,-72.71738 4,-73.50676 0.36667,-0.0746 1.56667,-0.48091 2.66667,-0.90299 5.35293,-2.053956 11.30952,-3.668936 13.53229,-3.668936 2.37436,0 2.46771,3.0704 2.46771,81.170076 0,63.36253 -0.36564,81.45169 -1.66667,82.45374 -1.4954,1.15178 -9.14928,3.47294 -37,11.22084 -4.76667,1.32607 -10.02128,2.4285 -11.67692,2.44984 l -3.01024,0.0388 z m -170.32308,76.22118 c -11.15966,-1.08717 -18.41634,-4.53242 -25.01032,-11.87412 -7.3506,-8.18413 -10.34,-16.69993 -10.32217,-29.40444 0.0204,-14.57216 3.09276,-24.76014 11.537,-38.25738 17.33932,-27.71511 49.97513,-41.47695 72.6342,-30.62831 9.41383,4.50713 13.48607,8.55848 18.11728,18.02433 2.60561,5.32568 3.80864,10.13779 4.18073,16.72284 2.24918,39.80479 -34.69096,78.96764 -71.13672,75.41708 z m 19.60703,-24.68426 c 11.27047,-3.84023 22.40968,-15.93882 26.85247,-29.16515 3.1341,-9.33036 2.78452,-16.41365 -1.20523,-24.42003 -4.44124,-8.91238 -12.1272,-13.08425 -21.96008,-11.91969 -18.78737,2.22509 -35.91507,21.89656 -35.94783,41.28673 -0.0209,12.35628 4.35538,20.27326 13.36715,24.18223 5.98035,2.59404 11.35583,2.60427 18.89352,0.0359 z m -61.60703,-94.37956 v -11.11859 l 14.33334,-4.16948 c 36.0482,-10.4862 99.80434,-28.26 101.37105,-28.26 1.31779,0 1.64336,2.6538 1.34953,11 l -0.38725,11 -24,6.83339 c -47.08743,13.40694 -91.34044,25.83328 -91.99819,25.83328 -0.36766,0 -0.66848,-5.00338 -0.66848,-11.1186 z M 279.2382,112.0119 c 0,-6.44574 0.58565,-10.46544 1.62529,-11.15544 2.51929,-1.672026 38.91431,-12.104306 40.04137,-11.477466 1.34474,0.74789 1.24214,17.952906 -0.11986,20.099026 -0.59347,0.93513 -6.73428,3.24825 -13.64626,5.14027 -6.91197,1.89201 -14.66722,4.01864 -17.23389,4.72585 -11.6934,3.22195 -10.66667,3.92772 -10.66667,-7.33224 z m 22.80556,-28.761896 c -4.23799,-4.23799 -3.60475,-9.76831 1.7712,-15.46847 3.72654,-3.95128 5.37398,-4.77393 8.86817,-4.42827 2.74125,0.27117 5.21977,1.67379 6.86145,3.88297 2.34791,3.15953 2.40403,3.85102 0.64919,8 -3.86875,9.14695 -12.98968,13.1741 -18.15001,8.01377 z m 145.47169,-19.80441 0.38941,-10.332191 16.66667,-4.99582 c 9.16667,-2.7477 18.61667,-5.36499 21,-5.8162 l 4.33333,-0.820382 v 10.101475 c 0,8.551458 -0.38782,10.309038 -2.52749,11.454148 -2.87785,1.54018 -35.87064,10.74115 -38.51556,10.74115 -1.30967,0 -1.64019,-2.53647 -1.34636,-10.33218 z m 3.26273,-22.772805 c -4.56996,-5.049738 -1.5283,-14.442171 5.92514,-18.296495 7.55689,-3.907822 13.20154,-0.783757 13.20154,7.306471 0,9.425617 -13.51478,17.191097 -19.12668,10.990024 z"
       id="path262"
       inkscape:export-filename="../f8c9707d/logo11.png"
       inkscape:export-xdpi="96"
       inkscape:export-ydpi="96" />
  </g>
</svg>
