<?xml version="1.0" encoding="UTF-8" standalone="no"?>
<!-- Created with Inkscape (http://www.inkscape.org/) -->

<svg
   version="1.1"
   id="svg198"
   width="41.350189"
   height="50.231934"
   viewBox="0 0 41.350189 50.231934"
   sodipodi:docname="t07-02.png"
   xmlns:inkscape="http://www.inkscape.org/namespaces/inkscape"
   xmlns:sodipodi="http://sodipodi.sourceforge.net/DTD/sodipodi-0.dtd"
   xmlns="http://www.w3.org/2000/svg"
   xmlns:svg="http://www.w3.org/2000/svg">
  <defs
     id="defs202" />
  <sodipodi:namedview
     id="namedview200"
     pagecolor="#ffffff"
     bordercolor="#000000"
     borderopacity="0.25"
     inkscape:showpageshadow="2"
     inkscape:pageopacity="0.0"
     inkscape:pagecheckerboard="0"
     inkscape:deskcolor="#d1d1d1"
     showgrid="false" />
  <g
     inkscape:groupmode="layer"
     inkscape:label="Image"
     id="g204"
     transform="translate(-85.68206,-141.84248)">
    <path
       style="fill:#000000;stroke-width:0.20309"
       d="m 90.366874,191.91224 c -7.464468,-1.87561 -5.550366,-11.86955 2.497999,-13.04261 1.656109,-0.24138 1.656109,-0.24138 1.594731,-14.15952 -0.07497,-16.99923 -0.350026,-15.76187 3.724991,-16.75685 2.823705,-0.68944 9.975675,-2.42404 13.761445,-3.33762 1.84304,-0.44477 5.25909,-1.27048 7.59122,-1.83492 5.43506,-1.31543 6.11776,-1.28438 7.17256,0.32626 0.65065,0.99351 0.22538,37.36627 -0.46801,40.02838 -1.41212,5.4215 -9.49462,7.91878 -12.66672,3.91369 -3.49068,-4.40735 0.14919,-10.8978 6.29146,-11.21863 1.117,-0.0583 1.117,-0.0583 1.1708,-6.10028 0.0504,-5.65863 0.031,-6.04192 -0.30464,-6.04172 -0.19714,1.2e-4 -1.27234,0.21911 -2.38933,0.48663 -1.117,0.26753 -2.89911,0.68644 -3.96026,0.93091 -1.06115,0.24446 -3.20883,0.75141 -4.77262,1.12656 -1.56379,0.37514 -4.30551,1.01766 -6.09271,1.42782 -1.78719,0.41016 -3.27722,0.77061 -3.31117,0.801 -0.034,0.0304 -0.11123,3.97249 -0.17173,8.76025 -0.110001,8.705 -0.110001,8.705 -0.80483,10.16866 -1.492752,3.14448 -5.733857,5.30829 -8.863186,4.52199 z m 13.557106,-31.33668 c 1.67549,-0.3905 3.86886,-0.89773 4.87416,-1.12718 1.63664,-0.37354 5.41129,-1.26783 10.50991,-2.49001 1.77705,-0.42597 1.77705,-0.42597 1.77705,-4.05777 0,-1.99749 -0.0691,-3.6318 -0.15366,-3.6318 -0.17904,0 -4.95549,1.22388 -9.89931,2.53654 -1.89889,0.50418 -5.11614,1.33809 -7.14945,1.85313 -3.69691,0.93643 -3.69691,0.93643 -3.75717,4.16581 -0.0671,3.59793 -0.0572,3.68252 0.41613,3.55313 0.18479,-0.0505 1.70684,-0.41134 3.38234,-0.80185 z"
       id="path262" />
  </g>
</svg>
